<mxfile host="app.diagrams.net" modified="2023-05-22T18:12:02.589Z" agent="Mozilla/5.0 (Windows NT 10.0; Win64; x64) AppleWebKit/537.36 (KHTML, like Gecko) Chrome/113.0.0.0 Safari/537.36" etag="CnuW_RQaWu8j9zbk8ewO" version="21.3.2" type="device">
  <diagram name="Страница 1" id="YgUfaKez4OH0CnSGYcgf">
    <mxGraphModel dx="2353" dy="1046" grid="0" gridSize="10" guides="1" tooltips="1" connect="1" arrows="1" fold="1" page="0" pageScale="1" pageWidth="1400" pageHeight="850" math="0" shadow="0">
      <root>
        <mxCell id="0" />
        <mxCell id="1" parent="0" />
        <mxCell id="64x0n7IiM4_NmmOd-yNO-16" value="" style="rounded=0;whiteSpace=wrap;html=1;" vertex="1" parent="1">
          <mxGeometry x="-270" y="315" width="520" height="180" as="geometry" />
        </mxCell>
        <mxCell id="64x0n7IiM4_NmmOd-yNO-1" value="" style="rounded=0;whiteSpace=wrap;html=1;" vertex="1" parent="1">
          <mxGeometry x="340" y="140" width="520" height="530" as="geometry" />
        </mxCell>
        <mxCell id="64x0n7IiM4_NmmOd-yNO-2" value="" style="rounded=0;whiteSpace=wrap;html=1;" vertex="1" parent="1">
          <mxGeometry x="350" y="180" width="500" height="480" as="geometry" />
        </mxCell>
        <mxCell id="64x0n7IiM4_NmmOd-yNO-3" value="&lt;font style=&quot;font-size: 16px;&quot;&gt;WMS.Database&lt;/font&gt;" style="rounded=0;whiteSpace=wrap;html=1;" vertex="1" parent="1">
          <mxGeometry x="380" y="240" width="190" height="90" as="geometry" />
        </mxCell>
        <mxCell id="64x0n7IiM4_NmmOd-yNO-4" value="&lt;font style=&quot;font-size: 16px;&quot;&gt;WMS.Core&lt;/font&gt;" style="rounded=0;whiteSpace=wrap;html=1;" vertex="1" parent="1">
          <mxGeometry x="380" y="370" width="190" height="90" as="geometry" />
        </mxCell>
        <mxCell id="64x0n7IiM4_NmmOd-yNO-5" value="&lt;font style=&quot;font-size: 16px;&quot;&gt;WMS.WebApi&lt;/font&gt;" style="rounded=0;whiteSpace=wrap;html=1;" vertex="1" parent="1">
          <mxGeometry x="380" y="500" width="190" height="90" as="geometry" />
        </mxCell>
        <mxCell id="64x0n7IiM4_NmmOd-yNO-7" value="&lt;font style=&quot;font-size: 16px;&quot;&gt;MS SQL Server 2019&lt;/font&gt;" style="shape=cylinder3;whiteSpace=wrap;html=1;boundedLbl=1;backgroundOutline=1;size=15;" vertex="1" parent="1">
          <mxGeometry x="-140" y="385" width="250" height="90" as="geometry" />
        </mxCell>
        <mxCell id="64x0n7IiM4_NmmOd-yNO-8" value="&lt;font style=&quot;font-size: 16px;&quot;&gt;WMS.Database.Migrations&lt;/font&gt;" style="rounded=0;whiteSpace=wrap;html=1;" vertex="1" parent="1">
          <mxGeometry x="620" y="370" width="210" height="90" as="geometry" />
        </mxCell>
        <mxCell id="64x0n7IiM4_NmmOd-yNO-9" value="" style="endArrow=classic;html=1;rounded=0;entryX=0.5;entryY=1;entryDx=0;entryDy=0;exitX=0.5;exitY=0;exitDx=0;exitDy=0;" edge="1" parent="1" source="64x0n7IiM4_NmmOd-yNO-4" target="64x0n7IiM4_NmmOd-yNO-3">
          <mxGeometry width="50" height="50" relative="1" as="geometry">
            <mxPoint x="730" y="500" as="sourcePoint" />
            <mxPoint x="780" y="450" as="targetPoint" />
          </mxGeometry>
        </mxCell>
        <mxCell id="64x0n7IiM4_NmmOd-yNO-10" value="" style="endArrow=classic;html=1;rounded=0;entryX=0.5;entryY=1;entryDx=0;entryDy=0;exitX=0.5;exitY=0;exitDx=0;exitDy=0;" edge="1" parent="1" source="64x0n7IiM4_NmmOd-yNO-5" target="64x0n7IiM4_NmmOd-yNO-4">
          <mxGeometry width="50" height="50" relative="1" as="geometry">
            <mxPoint x="485" y="380" as="sourcePoint" />
            <mxPoint x="485" y="340" as="targetPoint" />
          </mxGeometry>
        </mxCell>
        <mxCell id="64x0n7IiM4_NmmOd-yNO-11" value="" style="endArrow=classic;html=1;rounded=0;entryX=0.5;entryY=1;entryDx=0;entryDy=0;exitX=1;exitY=0.5;exitDx=0;exitDy=0;edgeStyle=orthogonalEdgeStyle;" edge="1" parent="1" source="64x0n7IiM4_NmmOd-yNO-5" target="64x0n7IiM4_NmmOd-yNO-8">
          <mxGeometry width="50" height="50" relative="1" as="geometry">
            <mxPoint x="485" y="510" as="sourcePoint" />
            <mxPoint x="485" y="470" as="targetPoint" />
          </mxGeometry>
        </mxCell>
        <mxCell id="64x0n7IiM4_NmmOd-yNO-12" value="" style="endArrow=classic;html=1;rounded=0;entryX=1;entryY=0.5;entryDx=0;entryDy=0;exitX=0.5;exitY=0;exitDx=0;exitDy=0;edgeStyle=orthogonalEdgeStyle;" edge="1" parent="1" source="64x0n7IiM4_NmmOd-yNO-8" target="64x0n7IiM4_NmmOd-yNO-3">
          <mxGeometry width="50" height="50" relative="1" as="geometry">
            <mxPoint x="510" y="440" as="sourcePoint" />
            <mxPoint x="560" y="390" as="targetPoint" />
          </mxGeometry>
        </mxCell>
        <mxCell id="64x0n7IiM4_NmmOd-yNO-13" value="&lt;font style=&quot;font-size: 16px;&quot;&gt;Веб-сервер Kestrel&lt;/font&gt;" style="text;html=1;strokeColor=none;fillColor=none;align=center;verticalAlign=middle;whiteSpace=wrap;rounded=0;" vertex="1" parent="1">
          <mxGeometry x="505" y="190" width="190" height="30" as="geometry" />
        </mxCell>
        <mxCell id="64x0n7IiM4_NmmOd-yNO-14" value="&lt;span style=&quot;font-size: 16px;&quot;&gt;ASP.NET 6, EF 6, JWT Auth, FluentValidation 11.5.2, &lt;br&gt;Hangfire 1.8.1, OData 8.2, Serilog 6.0.1, CsvHelper 30.0.1&lt;/span&gt;" style="text;html=1;strokeColor=none;fillColor=none;align=center;verticalAlign=middle;whiteSpace=wrap;rounded=0;" vertex="1" parent="1">
          <mxGeometry x="355" y="615" width="490" height="30" as="geometry" />
        </mxCell>
        <mxCell id="64x0n7IiM4_NmmOd-yNO-15" value="&lt;font style=&quot;font-size: 16px;&quot;&gt;Docker контейнер&lt;/font&gt;" style="text;html=1;strokeColor=none;fillColor=none;align=center;verticalAlign=middle;whiteSpace=wrap;rounded=0;" vertex="1" parent="1">
          <mxGeometry x="505" y="150" width="190" height="30" as="geometry" />
        </mxCell>
        <mxCell id="64x0n7IiM4_NmmOd-yNO-17" value="&lt;font style=&quot;font-size: 16px;&quot;&gt;Docker контейнер&lt;/font&gt;" style="text;html=1;strokeColor=none;fillColor=none;align=center;verticalAlign=middle;whiteSpace=wrap;rounded=0;" vertex="1" parent="1">
          <mxGeometry x="-110" y="335" width="190" height="30" as="geometry" />
        </mxCell>
        <mxCell id="64x0n7IiM4_NmmOd-yNO-18" value="" style="endArrow=classic;html=1;rounded=0;entryX=1;entryY=0.5;entryDx=0;entryDy=0;exitX=0;exitY=0.5;exitDx=0;exitDy=0;" edge="1" parent="1" source="64x0n7IiM4_NmmOd-yNO-1" target="64x0n7IiM4_NmmOd-yNO-16">
          <mxGeometry width="50" height="50" relative="1" as="geometry">
            <mxPoint x="800" y="610" as="sourcePoint" />
            <mxPoint x="850" y="560" as="targetPoint" />
          </mxGeometry>
        </mxCell>
        <mxCell id="64x0n7IiM4_NmmOd-yNO-19" value="&lt;font style=&quot;font-size: 16px;&quot;&gt;TCP&lt;/font&gt;" style="text;html=1;strokeColor=none;fillColor=none;align=center;verticalAlign=middle;whiteSpace=wrap;rounded=0;" vertex="1" parent="1">
          <mxGeometry x="260" y="380" width="70" height="30" as="geometry" />
        </mxCell>
        <mxCell id="64x0n7IiM4_NmmOd-yNO-20" value="" style="rounded=0;whiteSpace=wrap;html=1;" vertex="1" parent="1">
          <mxGeometry x="980" y="140" width="590" height="770" as="geometry" />
        </mxCell>
        <mxCell id="64x0n7IiM4_NmmOd-yNO-21" value="&lt;font style=&quot;font-size: 16px;&quot;&gt;Docker контейнер&lt;/font&gt;" style="text;html=1;strokeColor=none;fillColor=none;align=center;verticalAlign=middle;whiteSpace=wrap;rounded=0;" vertex="1" parent="1">
          <mxGeometry x="1180" y="150" width="190" height="30" as="geometry" />
        </mxCell>
        <mxCell id="64x0n7IiM4_NmmOd-yNO-22" value="" style="rounded=0;whiteSpace=wrap;html=1;" vertex="1" parent="1">
          <mxGeometry x="990" y="180" width="570" height="720" as="geometry" />
        </mxCell>
        <mxCell id="64x0n7IiM4_NmmOd-yNO-23" value="&lt;font style=&quot;font-size: 16px;&quot;&gt;Приложение Angular&lt;/font&gt;" style="text;html=1;strokeColor=none;fillColor=none;align=center;verticalAlign=middle;whiteSpace=wrap;rounded=0;" vertex="1" parent="1">
          <mxGeometry x="1180" y="190" width="190" height="30" as="geometry" />
        </mxCell>
        <mxCell id="64x0n7IiM4_NmmOd-yNO-24" value="&lt;font style=&quot;font-size: 16px;&quot;&gt;Корневой модуль&lt;/font&gt;" style="rounded=0;whiteSpace=wrap;html=1;" vertex="1" parent="1">
          <mxGeometry x="1125" y="380" width="190" height="90" as="geometry" />
        </mxCell>
        <mxCell id="64x0n7IiM4_NmmOd-yNO-25" value="&lt;span style=&quot;font-size: 16px;&quot;&gt;Core модуль&lt;/span&gt;" style="rounded=0;whiteSpace=wrap;html=1;" vertex="1" parent="1">
          <mxGeometry x="1250" y="250" width="190" height="90" as="geometry" />
        </mxCell>
        <mxCell id="64x0n7IiM4_NmmOd-yNO-26" value="&lt;font style=&quot;font-size: 16px;&quot;&gt;Общий модуль&lt;/font&gt;" style="rounded=0;whiteSpace=wrap;html=1;" vertex="1" parent="1">
          <mxGeometry x="1010" y="250" width="190" height="90" as="geometry" />
        </mxCell>
        <mxCell id="64x0n7IiM4_NmmOd-yNO-27" value="&lt;font style=&quot;font-size: 16px;&quot;&gt;Модуль маршрутизации&lt;/font&gt;" style="rounded=0;whiteSpace=wrap;html=1;" vertex="1" parent="1">
          <mxGeometry x="1010" y="525" width="190" height="90" as="geometry" />
        </mxCell>
        <mxCell id="64x0n7IiM4_NmmOd-yNO-28" value="" style="rounded=0;whiteSpace=wrap;html=1;" vertex="1" parent="1">
          <mxGeometry x="1250" y="525" width="290" height="315" as="geometry" />
        </mxCell>
        <mxCell id="64x0n7IiM4_NmmOd-yNO-29" value="" style="endArrow=classic;html=1;rounded=0;entryX=0.5;entryY=1;entryDx=0;entryDy=0;exitX=0;exitY=0.5;exitDx=0;exitDy=0;edgeStyle=orthogonalEdgeStyle;" edge="1" parent="1" source="64x0n7IiM4_NmmOd-yNO-24" target="64x0n7IiM4_NmmOd-yNO-26">
          <mxGeometry width="50" height="50" relative="1" as="geometry">
            <mxPoint x="485" y="380" as="sourcePoint" />
            <mxPoint x="485" y="340" as="targetPoint" />
          </mxGeometry>
        </mxCell>
        <mxCell id="64x0n7IiM4_NmmOd-yNO-30" value="" style="endArrow=classic;html=1;rounded=0;entryX=0.5;entryY=1;entryDx=0;entryDy=0;exitX=1;exitY=0.5;exitDx=0;exitDy=0;edgeStyle=orthogonalEdgeStyle;" edge="1" parent="1" source="64x0n7IiM4_NmmOd-yNO-24" target="64x0n7IiM4_NmmOd-yNO-25">
          <mxGeometry width="50" height="50" relative="1" as="geometry">
            <mxPoint x="1135" y="435" as="sourcePoint" />
            <mxPoint x="1115" y="350" as="targetPoint" />
          </mxGeometry>
        </mxCell>
        <mxCell id="64x0n7IiM4_NmmOd-yNO-31" value="" style="endArrow=classic;html=1;rounded=0;entryX=0.5;entryY=0;entryDx=0;entryDy=0;exitX=0.75;exitY=1;exitDx=0;exitDy=0;edgeStyle=orthogonalEdgeStyle;" edge="1" parent="1" source="64x0n7IiM4_NmmOd-yNO-24" target="64x0n7IiM4_NmmOd-yNO-28">
          <mxGeometry width="50" height="50" relative="1" as="geometry">
            <mxPoint x="1325" y="435" as="sourcePoint" />
            <mxPoint x="1355" y="350" as="targetPoint" />
          </mxGeometry>
        </mxCell>
        <mxCell id="64x0n7IiM4_NmmOd-yNO-32" value="" style="endArrow=classic;html=1;rounded=0;entryX=0.5;entryY=0;entryDx=0;entryDy=0;exitX=0.25;exitY=1;exitDx=0;exitDy=0;edgeStyle=orthogonalEdgeStyle;" edge="1" parent="1" source="64x0n7IiM4_NmmOd-yNO-24" target="64x0n7IiM4_NmmOd-yNO-27">
          <mxGeometry width="50" height="50" relative="1" as="geometry">
            <mxPoint x="1278" y="480" as="sourcePoint" />
            <mxPoint x="1355" y="535" as="targetPoint" />
          </mxGeometry>
        </mxCell>
        <mxCell id="64x0n7IiM4_NmmOd-yNO-33" value="&lt;font style=&quot;font-size: 16px;&quot;&gt;Компонента&lt;/font&gt;" style="rounded=0;whiteSpace=wrap;html=1;" vertex="1" parent="1">
          <mxGeometry x="1330" y="590" width="130" height="42.5" as="geometry" />
        </mxCell>
        <mxCell id="64x0n7IiM4_NmmOd-yNO-34" value="&lt;font style=&quot;font-size: 16px;&quot;&gt;Сервис&lt;/font&gt;" style="rounded=0;whiteSpace=wrap;html=1;" vertex="1" parent="1">
          <mxGeometry x="1330" y="670" width="130" height="42.5" as="geometry" />
        </mxCell>
        <mxCell id="64x0n7IiM4_NmmOd-yNO-35" value="&lt;font style=&quot;font-size: 16px;&quot;&gt;Модуль бизнес логики&lt;/font&gt;" style="text;html=1;strokeColor=none;fillColor=none;align=center;verticalAlign=middle;whiteSpace=wrap;rounded=0;" vertex="1" parent="1">
          <mxGeometry x="1290" y="530" width="190" height="30" as="geometry" />
        </mxCell>
        <mxCell id="64x0n7IiM4_NmmOd-yNO-36" value="&lt;font style=&quot;font-size: 16px;&quot;&gt;Сервис данных&lt;/font&gt;" style="rounded=0;whiteSpace=wrap;html=1;" vertex="1" parent="1">
          <mxGeometry x="1330" y="753.75" width="130" height="42.5" as="geometry" />
        </mxCell>
        <mxCell id="64x0n7IiM4_NmmOd-yNO-37" value="" style="endArrow=classic;html=1;rounded=0;exitX=0.5;exitY=1;exitDx=0;exitDy=0;edgeStyle=orthogonalEdgeStyle;entryX=0.5;entryY=0;entryDx=0;entryDy=0;" edge="1" parent="1" source="64x0n7IiM4_NmmOd-yNO-33" target="64x0n7IiM4_NmmOd-yNO-34">
          <mxGeometry width="50" height="50" relative="1" as="geometry">
            <mxPoint x="1368" y="655" as="sourcePoint" />
            <mxPoint x="1395" y="660" as="targetPoint" />
          </mxGeometry>
        </mxCell>
        <mxCell id="64x0n7IiM4_NmmOd-yNO-38" value="" style="endArrow=classic;html=1;rounded=0;exitX=0.5;exitY=1;exitDx=0;exitDy=0;edgeStyle=orthogonalEdgeStyle;entryX=0.5;entryY=0;entryDx=0;entryDy=0;" edge="1" parent="1" source="64x0n7IiM4_NmmOd-yNO-34" target="64x0n7IiM4_NmmOd-yNO-36">
          <mxGeometry width="50" height="50" relative="1" as="geometry">
            <mxPoint x="1405" y="643" as="sourcePoint" />
            <mxPoint x="1405" y="680" as="targetPoint" />
          </mxGeometry>
        </mxCell>
        <mxCell id="64x0n7IiM4_NmmOd-yNO-40" value="&lt;span style=&quot;font-size: 16px;&quot;&gt;Angular CLI 15.0.2, Node 18.12.1, npm 8.19.2, rxjs 7.5.7, &lt;br&gt;typescript 4.8.4, angular material 15.0.1&amp;nbsp;&lt;/span&gt;" style="text;html=1;strokeColor=none;fillColor=none;align=center;verticalAlign=middle;whiteSpace=wrap;rounded=0;" vertex="1" parent="1">
          <mxGeometry x="1020" y="860" width="490" height="30" as="geometry" />
        </mxCell>
        <mxCell id="64x0n7IiM4_NmmOd-yNO-42" value="&lt;font style=&quot;font-size: 16px;&quot;&gt;Веб-браузер&lt;/font&gt;" style="rounded=0;whiteSpace=wrap;html=1;" vertex="1" parent="1">
          <mxGeometry x="340" y="730" width="520" height="180" as="geometry" />
        </mxCell>
        <mxCell id="64x0n7IiM4_NmmOd-yNO-43" value="" style="endArrow=classic;html=1;rounded=0;entryX=0;entryY=0.883;entryDx=0;entryDy=0;entryPerimeter=0;exitX=1;exitY=0.5;exitDx=0;exitDy=0;" edge="1" parent="1" source="64x0n7IiM4_NmmOd-yNO-42" target="64x0n7IiM4_NmmOd-yNO-20">
          <mxGeometry width="50" height="50" relative="1" as="geometry">
            <mxPoint x="430" y="550" as="sourcePoint" />
            <mxPoint x="480" y="500" as="targetPoint" />
          </mxGeometry>
        </mxCell>
        <mxCell id="64x0n7IiM4_NmmOd-yNO-44" value="" style="endArrow=classic;html=1;rounded=0;entryX=0.5;entryY=1;entryDx=0;entryDy=0;exitX=0.5;exitY=0;exitDx=0;exitDy=0;" edge="1" parent="1" source="64x0n7IiM4_NmmOd-yNO-42" target="64x0n7IiM4_NmmOd-yNO-1">
          <mxGeometry width="50" height="50" relative="1" as="geometry">
            <mxPoint x="870" y="830" as="sourcePoint" />
            <mxPoint x="990" y="830" as="targetPoint" />
          </mxGeometry>
        </mxCell>
        <mxCell id="64x0n7IiM4_NmmOd-yNO-45" value="&lt;span style=&quot;font-size: 16px;&quot;&gt;HTTP&lt;/span&gt;" style="text;html=1;strokeColor=none;fillColor=none;align=center;verticalAlign=middle;whiteSpace=wrap;rounded=0;" vertex="1" parent="1">
          <mxGeometry x="590" y="682.5" width="70" height="30" as="geometry" />
        </mxCell>
        <mxCell id="64x0n7IiM4_NmmOd-yNO-46" value="&lt;span style=&quot;font-size: 16px;&quot;&gt;HTTP&lt;/span&gt;" style="text;html=1;strokeColor=none;fillColor=none;align=center;verticalAlign=middle;whiteSpace=wrap;rounded=0;" vertex="1" parent="1">
          <mxGeometry x="890" y="796.25" width="70" height="30" as="geometry" />
        </mxCell>
        <mxCell id="64x0n7IiM4_NmmOd-yNO-47" value="" style="endArrow=classic;html=1;rounded=0;exitX=0;exitY=0.337;exitDx=0;exitDy=0;exitPerimeter=0;" edge="1" parent="1" source="64x0n7IiM4_NmmOd-yNO-20">
          <mxGeometry width="50" height="50" relative="1" as="geometry">
            <mxPoint x="865" y="660" as="sourcePoint" />
            <mxPoint x="860" y="399" as="targetPoint" />
          </mxGeometry>
        </mxCell>
        <mxCell id="64x0n7IiM4_NmmOd-yNO-48" value="&lt;span style=&quot;font-size: 16px;&quot;&gt;HTTP&lt;/span&gt;" style="text;html=1;strokeColor=none;fillColor=none;align=center;verticalAlign=middle;whiteSpace=wrap;rounded=0;" vertex="1" parent="1">
          <mxGeometry x="890" y="370" width="70" height="30" as="geometry" />
        </mxCell>
        <mxCell id="64x0n7IiM4_NmmOd-yNO-49" value="&lt;span style=&quot;font-size: 16px;&quot;&gt;Google Chrome&lt;/span&gt;" style="text;html=1;strokeColor=none;fillColor=none;align=center;verticalAlign=middle;whiteSpace=wrap;rounded=0;" vertex="1" parent="1">
          <mxGeometry x="720" y="880" width="140" height="30" as="geometry" />
        </mxCell>
      </root>
    </mxGraphModel>
  </diagram>
</mxfile>
